<?xml version="1.0" standalone="no"?>
<!DOCTYPE svg PUBLIC "-//W3C//DTD SVG 20010904//EN"
 "http://www.w3.org/TR/2001/REC-SVG-20010904/DTD/svg10.dtd">
<svg version="1.0" xmlns="http://www.w3.org/2000/svg"
 width="202.000000pt" height="249.000000pt" viewBox="0 0 202.000000 249.000000"
 preserveAspectRatio="xMidYMid meet">

<g transform="translate(0.000000,249.000000) scale(0.100000,-0.100000)"
fill="#000000" stroke="none">
<path d="M815 2409 c-185 -25 -355 -82 -512 -172 -108 -62 -242 -156 -243
-169 0 -4 31 -31 68 -59 l69 -51 -10 -52 c-5 -28 -7 -164 -4 -306 5 -245 15
-337 46 -420 5 -14 24 -65 42 -115 42 -119 108 -251 166 -333 114 -161 301
-317 471 -392 l73 -33 52 24 c61 28 221 134 288 190 105 88 237 265 318 428
105 208 142 393 148 742 l5 245 37 24 c118 80 132 92 120 107 -7 8 -59 45
-116 83 -180 121 -383 206 -583 245 -102 20 -338 28 -435 14z m400 -25 c134
-21 284 -72 430 -145 118 -59 281 -166 279 -184 -1 -9 -119 -95 -130 -95 -3 0
-42 23 -88 50 -247 148 -486 224 -711 223 -285 -1 -496 -67 -771 -243 -19 -12
-27 -9 -83 30 l-62 44 28 23 c51 42 187 130 253 163 277 139 551 182 855 134z
m-70 -174 c86 -12 265 -69 360 -114 l70 -34 -33 -7 c-51 -12 -47 -22 13 -40
31 -9 67 -20 82 -26 25 -9 25 -10 7 -24 -21 -15 -25 -12 66 -32 25 -5 25 -5
-10 -24 -181 -97 -474 -86 -672 25 l-40 22 -93 -47 c-55 -27 -122 -52 -162
-60 -100 -19 -236 -15 -327 10 -69 19 -176 65 -176 75 0 2 32 10 72 16 53 9
67 15 55 22 -30 16 -19 24 62 48 44 13 78 27 75 31 -2 4 -23 10 -45 14 -23 4
-37 11 -32 15 16 15 168 77 243 98 130 38 341 52 485 32z m-165 -660 l0 -380
-365 0 -364 0 -15 53 c-8 28 -20 87 -26 130 -12 93 -13 536 -1 555 6 11 15 9
42 -7 117 -72 343 -100 501 -62 48 11 118 36 155 55 38 19 69 35 71 36 1 0 2
-171 2 -380z m177 304 c112 -31 159 -36 283 -31 89 4 139 11 175 24 28 11 57
17 65 15 8 -3 12 -1 8 3 -4 4 8 16 27 26 42 23 49 24 41 3 -4 -10 -2 -13 6 -8
8 5 10 -48 6 -205 -3 -116 -7 -214 -10 -216 -2 -2 -30 -5 -61 -6 -52 -2 -57
-4 -57 -25 0 -19 6 -22 45 -26 40 -3 46 -1 54 22 9 25 9 25 10 -6 1 -31 -16
-136 -26 -164 -6 -16 -8 -30 -11 -67 l-2 -23 -197 1 c-136 0 -189 4 -168 10
17 5 35 7 42 4 19 -7 25 12 9 28 -13 13 -12 16 9 25 14 6 32 9 40 6 10 -4 15
0 15 10 0 9 -10 20 -22 25 -22 8 -21 9 10 15 29 7 46 26 23 26 -15 0 -42 31
-36 41 4 5 15 9 26 9 29 0 23 17 -8 23 -17 3 -42 -3 -65 -14 -47 -24 -67 -24
-121 0 -23 11 -49 21 -57 24 -8 3 56 6 142 6 139 1 158 3 166 19 5 9 7 22 5
28 -4 11 47 37 73 37 15 0 19 32 5 41 -4 3 -22 0 -40 -7 -23 -8 -31 -17 -27
-29 7 -31 -13 -19 -28 15 -13 31 -13 33 27 74 34 36 38 44 27 58 -18 22 -27
19 -67 -19 -49 -45 -71 -38 -42 14 23 40 20 70 -6 70 -18 0 -38 -46 -32 -71 4
-15 1 -16 -24 -7 -27 9 -29 14 -29 59 0 46 -2 49 -25 49 -26 0 -31 -15 -25
-79 1 -14 -2 -21 -9 -17 -6 4 -11 2 -11 -3 0 -6 -7 -11 -15 -11 -8 0 -15 6
-15 13 0 27 -26 67 -42 67 -23 0 -25 -52 -3 -70 20 -16 19 -30 -2 -30 -9 0
-14 3 -10 6 3 4 -10 17 -29 31 -30 20 -39 22 -53 11 -9 -7 -18 -13 -19 -14 -2
-2 15 -19 37 -40 39 -34 41 -38 27 -59 -25 -38 -39 -104 -25 -121 9 -11 8 -15
-5 -20 -9 -3 -16 -14 -16 -24 0 -12 -9 -20 -22 -22 -13 -2 -23 -10 -23 -18 0
-9 7 -14 18 -12 9 2 17 -3 17 -10 0 -10 2 -10 8 -1 11 17 55 4 48 -13 -4 -9 2
-14 17 -14 44 0 65 -11 65 -35 0 -21 -3 -22 -35 -13 -33 9 -63 -1 -63 -22 0
-14 122 -23 130 -10 6 9 13 9 26 2 16 -9 13 -11 -21 -18 -33 -6 -36 -8 -20
-15 11 -4 -43 -7 -120 -6 l-140 2 -3 373 -2 372 50 -25 c27 -14 76 -32 107
-41z m261 -284 c30 -24 61 -75 62 -102 0 -16 -14 -18 -150 -18 -86 0 -150 4
-150 9 0 39 54 114 95 132 32 14 113 2 143 -21z m-180 -226 c13 -9 34 -18 47
-20 33 -6 73 -23 55 -23 -40 0 -126 25 -123 35 2 7 -16 16 -44 22 l-48 11 45
-5 c25 -3 56 -12 68 -20z m192 -8 c0 -2 -7 -7 -16 -10 -8 -3 -12 -2 -9 4 6 10
25 14 25 6z m-101 -82 c10 -9 -45 -3 -59 6 -11 7 -5 8 20 4 19 -4 37 -8 39
-10z m367 -131 c-12 -50 -133 -287 -180 -352 -64 -90 -162 -200 -221 -248 -90
-74 -288 -195 -296 -181 -8 13 -11 762 -3 791 5 16 31 17 356 17 l350 0 -6
-27z m-728 -378 c-2 -256 1 -397 7 -400 6 -3 -1 -2 -15 1 -103 25 -352 198
-402 279 -10 17 -18 26 -18 22 0 -10 -47 45 -91 108 -46 65 -70 115 -62 129 3
6 2 8 -2 3 -18 -16 -104 180 -89 204 4 7 3 10 -3 6 -6 -4 -13 4 -15 18 l-5 25
349 0 349 0 -3 -395z"/>
<path d="M828 2353 c-13 -3 -18 -15 -18 -43 0 -45 9 -54 42 -41 21 9 22 10 2
10 -32 1 -37 14 -12 28 l23 12 -22 1 c-13 0 -23 5 -23 10 0 6 9 10 20 10 11 0
20 5 20 10 0 10 -3 11 -32 3z"/>
<path d="M934 2343 c3 -10 8 -30 12 -45 3 -16 10 -25 15 -22 12 7 11 44 -1 44
-5 0 -10 9 -10 20 0 11 -5 20 -11 20 -6 0 -8 -8 -5 -17z"/>
<path d="M970 2340 c0 -11 5 -20 10 -20 6 0 10 9 10 20 0 11 -4 20 -10 20 -5
0 -10 -9 -10 -20z"/>
<path d="M1003 2333 c-15 -32 -18 -72 -4 -57 9 9 27 84 20 84 -2 0 -10 -12
-16 -27z"/>
<path d="M1042 2318 c-6 -23 -9 -44 -6 -47 2 -2 4 1 4 7 0 16 37 15 43 0 10
-24 7 31 -3 56 -14 37 -26 32 -38 -16z m28 2 c0 -5 -5 -10 -11 -10 -5 0 -7 5
-4 10 3 6 8 10 11 10 2 0 4 -4 4 -10z"/>
<path d="M1117 2353 c-15 -14 -7 -81 9 -87 26 -10 55 22 47 53 -7 31 -4 27
-29 35 -11 3 -23 3 -27 -1z m41 -46 c3 -21 -1 -27 -16 -27 -15 0 -18 6 -14 30
5 37 26 34 30 -3z"/>
<path d="M754 2342 c-19 -3 -21 -8 -17 -45 3 -23 7 -44 9 -46 2 -2 16 0 31 5
l28 8 -27 4 c-34 4 -36 17 -5 27 l22 8 -22 4 c-13 2 -23 8 -23 13 0 5 10 10
23 12 12 2 18 5 12 9 -5 3 -20 3 -31 1z"/>
<path d="M1190 2298 c0 -49 5 -47 13 5 3 20 2 37 -4 37 -5 0 -9 -19 -9 -42z"/>
<path d="M1241 2322 c-6 -11 -16 -33 -21 -48 -9 -22 -8 -25 3 -16 10 9 19 8
35 -4 22 -15 22 -15 16 28 -8 53 -19 66 -33 40z m19 -32 c0 -5 -4 -10 -10 -10
-5 0 -10 5 -10 10 0 6 5 10 10 10 6 0 10 -4 10 -10z"/>
<path d="M705 2293 c3 -26 1 -43 -5 -43 -5 0 -10 5 -10 11 0 5 -5 7 -10 4 -15
-9 -2 -25 21 -25 14 0 19 7 18 28 0 15 -5 36 -10 47 -7 15 -8 9 -4 -22z"/>
<path d="M610 2305 c-17 -20 -6 -45 21 -45 12 0 19 -5 16 -12 -2 -7 -13 -11
-23 -10 -15 3 -16 1 -7 -8 18 -19 45 -4 41 22 -2 14 -12 24 -28 28 -17 4 -21
8 -12 14 6 4 17 4 23 0 7 -4 10 -1 7 6 -6 20 -23 23 -38 5z"/>
<path d="M1334 2286 c-3 -13 -4 -33 -2 -43 4 -21 35 -30 51 -14 9 9 5 11 -13
9 -21 -3 -25 1 -25 22 0 20 5 25 23 24 28 -1 23 20 -6 24 -16 2 -23 -3 -28
-22z"/>
<path d="M533 2283 c-15 -5 -17 -51 -4 -71 4 -8 19 -12 32 -10 18 2 25 10 27
31 5 43 -19 65 -55 50z m41 -28 c7 -20 -3 -45 -19 -45 -13 0 -25 21 -25 46 0
19 36 18 44 -1z"/>
<path d="M1423 2282 c-21 -13 -26 -58 -8 -76 9 -9 19 -16 23 -16 33 1 51 59
27 84 -18 18 -25 19 -42 8z m35 -36 c4 -20 -16 -48 -29 -40 -11 6 -12 48 -2
58 11 10 28 1 31 -18z"/>
<path d="M453 2252 c-10 -6 -10 -17 1 -53 9 -27 14 -36 15 -22 1 29 17 38 30
16 5 -10 13 -14 17 -10 4 4 2 13 -4 19 -7 7 -12 22 -12 35 0 24 -22 31 -47 15z
m37 -22 c0 -5 -7 -10 -15 -10 -8 0 -15 5 -15 10 0 6 7 10 15 10 8 0 15 -4 15
-10z"/>
<path d="M1489 2223 c-10 -32 -10 -38 7 -50 10 -7 23 -13 28 -13 6 0 3 7 -7
14 -14 11 -17 22 -12 50 9 47 0 46 -16 -1z"/>
<path d="M414 2203 l6 -28 -16 23 c-24 32 -37 27 -29 -10 l6 -33 -20 25 c-27
32 -27 21 0 -24 24 -41 38 -40 32 1 l-5 28 21 -25 21 -25 -2 48 c-1 26 -6 47
-11 47 -5 0 -6 -12 -3 -27z"/>
<path d="M1556 2206 c-3 -13 -9 -31 -12 -40 -4 -11 2 -19 17 -25 31 -11 38 -5
14 13 -15 11 -16 18 -7 44 6 18 7 32 3 32 -5 0 -12 -11 -15 -24z"/>
<path d="M1616 2176 c-3 -13 -8 -31 -11 -38 -4 -9 4 -19 20 -26 14 -6 25 -8
25 -3 0 5 -7 11 -15 15 -23 8 -18 29 5 23 25 -6 26 1 3 20 -16 13 -15 14 12 9
28 -6 29 -5 11 9 -28 21 -43 19 -50 -9z"/>
<path d="M287 2173 c-10 -9 -8 -55 2 -71 11 -18 41 -12 54 10 22 34 -28 89
-56 61z m41 -36 c2 -19 -1 -27 -13 -27 -19 0 -30 24 -21 46 9 23 31 11 34 -19z"/>
<path d="M1682 2134 c-8 -17 -9 -31 -2 -43 10 -19 50 -36 50 -21 0 5 3 15 6
24 4 10 1 16 -10 16 -10 0 -13 -5 -9 -16 4 -12 2 -15 -8 -12 -20 7 -23 42 -4
58 13 11 18 10 30 -6 8 -10 15 -14 15 -8 0 15 -22 34 -40 34 -9 0 -22 -12 -28
-26z"/>
<path d="M245 2128 c3 -14 0 -28 -6 -30 -6 -2 -2 -11 9 -21 29 -26 34 -8 11
38 -14 30 -18 34 -14 13z"/>
<path d="M200 2117 c0 -23 26 -78 33 -71 3 4 2 15 -4 26 -5 10 -8 22 -5 27 3
5 -1 14 -9 21 -12 10 -15 10 -15 -3z"/>
<path d="M1760 2084 c-11 -31 -10 -37 6 -49 11 -7 21 -11 24 -8 3 2 -3 9 -13
14 -27 16 -21 32 11 25 24 -6 25 -5 10 7 -24 19 -23 31 2 24 24 -6 27 8 4 17
-27 10 -32 7 -44 -30z"/>
<path d="M872 2063 c-8 -3 -10 -9 -3 -16 5 -7 11 -25 14 -42 3 -22 4 -17 6 18
0 26 0 47 -1 46 -2 0 -9 -3 -16 -6z"/>
<path d="M926 2054 c-7 -19 10 -44 30 -44 8 0 14 -5 14 -11 0 -6 -9 -8 -20 -4
-11 4 -20 2 -20 -4 0 -6 11 -11 24 -11 28 0 41 28 32 66 -7 28 -50 34 -60 8z
m44 -8 c0 -8 -4 -17 -9 -21 -12 -7 -24 12 -16 25 9 15 25 12 25 -4z"/>
<path d="M1005 2060 c-5 -9 -1 -10 15 -5 20 6 22 4 17 -14 -3 -11 -1 -24 4
-27 17 -10 -2 -25 -24 -18 -17 5 -19 3 -11 -6 7 -6 20 -10 30 -8 15 2 19 12
19 43 0 33 -4 41 -22 43 -11 2 -24 -2 -28 -8z"/>
<path d="M1080 2053 c0 -13 3 -14 12 -5 7 7 16 12 20 12 15 0 8 -27 -12 -45
-28 -26 -25 -35 13 -34 25 1 27 3 9 6 l-24 5 21 22 c26 28 18 56 -15 56 -16 0
-24 -6 -24 -17z"/>
<path d="M520 1730 c0 -43 -3 -50 -20 -50 -16 0 -18 -4 -10 -24 5 -13 7 -26 6
-27 -2 -2 -6 -19 -9 -36 -6 -28 -4 -33 13 -33 16 0 20 -7 20 -30 l0 -30 -82 1
c-71 0 -79 2 -53 11 62 22 80 56 66 121 -7 30 -22 53 -50 78 -23 20 -41 42
-41 49 0 6 -6 10 -12 8 -10 -4 -13 -40 -13 -134 l-1 -129 -32 -3 c-31 -3 -33
-5 -27 -32 6 -25 3 -30 -19 -36 -14 -3 -26 -10 -26 -14 0 -14 38 -22 62 -14
13 4 39 6 59 5 20 -1 49 3 64 9 22 8 39 7 77 -6 36 -12 61 -14 91 -8 23 4 87
9 142 10 55 2 123 7 150 11 l50 8 -31 12 c-23 8 -39 8 -70 -3 -44 -15 -64 -17
-64 -6 0 4 32 47 70 95 39 49 70 94 70 100 0 7 -32 -21 -72 -61 -39 -40 -72
-71 -74 -69 -2 2 5 12 16 22 39 36 14 184 -32 185 -10 0 -22 9 -28 21 -16 28
-24 16 -27 -38 -1 -26 -8 -51 -15 -56 -10 -7 -10 -10 0 -14 8 -3 12 -26 12
-64 l0 -59 -36 0 c-31 0 -35 3 -29 18 24 56 7 108 -45 139 -39 23 -39 49 0 57
30 5 43 26 17 26 -8 0 -22 9 -32 20 -28 31 -35 24 -35 -30z m-138 -60 c-5 -61
-21 -70 -22 -12 0 39 3 52 13 49 7 -2 11 -18 9 -37z m353 10 c-3 -5 -13 -10
-21 -10 -8 0 -14 5 -14 10 0 6 9 10 21 10 11 0 17 -4 14 -10z m-301 -53 c11
-44 3 -56 -22 -34 -13 12 -17 26 -14 47 6 40 25 33 36 -13z m-29 -47 c20 -22
13 -36 -20 -42 -20 -3 -31 21 -21 48 7 19 20 18 41 -6z m335 -53 c0 -21 -4
-28 -17 -25 -18 3 -28 50 -18 77 6 14 8 14 21 -3 8 -11 14 -33 14 -49z m-160
-2 l23 -25 -31 0 c-27 0 -32 4 -32 25 0 14 4 25 8 25 5 0 19 -11 32 -25z"/>
<path d="M341 1391 c-29 -8 120 -35 189 -35 52 0 150 25 150 38 0 9 -34 5
-102 -15 -46 -13 -64 -11 -198 16 -8 1 -26 0 -39 -4z"/>
<path d="M333 1343 c-28 -11 -11 -23 25 -17 22 3 54 -1 81 -10 55 -20 79 -20
126 0 48 20 39 29 -13 14 -32 -10 -49 -9 -95 4 -54 16 -100 19 -124 9z"/>
<path d="M640 1320 c-19 -11 -45 -19 -57 -20 -13 0 -23 -5 -23 -11 0 -8 14 -9
48 -3 26 4 76 9 112 10 36 2 69 3 74 3 31 2 -65 41 -99 40 -11 0 -36 -8 -55
-19z"/>
<path d="M446 1261 c-3 -5 9 -9 27 -9 17 -1 46 -5 64 -11 38 -11 73 -4 73 15
0 10 -6 11 -22 5 -13 -5 -32 -5 -43 0 -28 11 -93 11 -99 0z"/>
<path d="M1070 1559 c0 -6 -7 -8 -17 -4 -25 9 -6 -7 38 -34 32 -19 37 -19 43
-5 10 27 7 32 -25 43 -39 14 -39 14 -39 0z"/>
<path d="M1610 1459 c0 -8 -14 -9 -42 -5 -24 3 -38 3 -33 -1 6 -5 10 -14 11
-20 1 -7 2 -17 3 -21 0 -4 17 -6 36 -4 31 4 35 8 35 33 0 16 -2 29 -5 29 -3 0
-5 -5 -5 -11z"/>
<path d="M1028 1453 c-10 -3 -18 -12 -18 -22 0 -14 10 -18 59 -19 56 -2 58 -1
54 22 -4 20 -11 24 -41 23 -21 0 -45 -2 -54 -4z"/>
<path d="M1691 1244 c0 -11 3 -14 6 -6 3 7 2 16 -1 19 -3 4 -6 -2 -5 -13z"/>
<path d="M1349 1064 c-10 -12 -10 -20 -1 -35 16 -26 16 -28 -13 -39 -15 -6
-35 -6 -54 1 -23 8 -37 7 -66 -7 -39 -18 -66 -50 -59 -68 3 -7 -11 -20 -31
-29 -19 -9 -35 -21 -35 -27 0 -5 2 -10 4 -10 6 0 79 42 86 50 13 14 70 40 89
40 25 0 25 6 1 -55 l-21 -50 4 38 c3 39 -2 43 -33 27 -57 -30 -39 -100 25
-100 62 0 116 79 94 137 -7 20 -6 28 8 39 18 14 30 13 66 -1 15 -6 17 -4 11
19 -4 16 -2 26 5 26 6 0 11 5 11 10 0 6 -6 10 -14 10 -7 0 -16 9 -19 20 -6 24
-39 26 -58 4z"/>
<path d="M1333 795 c-3 -9 -2 -19 1 -23 8 -8 38 10 44 26 6 18 -38 14 -45 -3z"/>
<path d="M1277 784 c-16 -9 -27 -23 -27 -35 0 -11 -7 -22 -15 -25 -15 -6 -30
2 -89 47 l-29 23 12 -22 c13 -25 9 -27 -21 -11 -18 9 -20 9 -15 -4 4 -11 -1
-17 -16 -19 -40 -6 47 -51 96 -50 164 3 169 4 198 47 30 44 23 59 -13 25 -21
-19 -24 -20 -35 -4 -7 9 -10 20 -8 25 10 15 -11 17 -38 3z"/>
<path d="M1180 779 c0 -3 6 -14 14 -24 16 -22 46 -14 46 13 0 15 -7 19 -30 18
-16 -1 -30 -4 -30 -7z"/>
<path d="M1389 728 c-44 -56 -45 -57 -103 -56 -104 1 -194 -30 -130 -46 14 -4
34 -4 45 -1 13 4 19 2 19 -9 0 -17 26 -46 41 -46 6 0 8 9 4 19 -8 26 11 36 31
17 21 -22 31 -20 30 7 -1 17 4 22 22 21 19 -1 22 3 18 22 -4 16 -1 24 12 28
20 7 69 86 53 86 -5 0 -24 -19 -42 -42z"/>
<path d="M507 1063 c-4 -3 -7 -21 -7 -40 0 -18 -3 -33 -7 -33 -9 0 -1 -225 7
-233 13 -11 77 -27 111 -27 20 0 51 -8 68 -17 29 -17 31 -17 53 3 27 25 88 47
120 43 45 -6 48 4 48 145 0 105 -3 136 -15 146 -8 7 -20 8 -27 4 -12 -8 -118
-24 -163 -25 -34 -1 -150 22 -159 32 -12 11 -20 11 -29 2z m156 -64 c13 -8 17
-24 19 -77 0 -37 2 -86 4 -108 l3 -42 -67 6 c-37 2 -73 9 -79 15 -9 6 -13 43
-13 119 l0 110 58 -7 c31 -4 65 -11 75 -16z m197 -89 c0 -55 -1 -100 -2 -100
-15 0 -117 -20 -129 -25 -14 -5 -17 5 -18 83 -1 48 3 100 8 115 10 26 14 27
76 27 l65 0 0 -100z"/>
<path d="M132 538 l-52 -73 35 -15 c27 -12 32 -18 25 -30 -5 -8 -10 -18 -10
-22 0 -10 183 -130 270 -176 90 -48 244 -103 360 -128 63 -14 127 -18 245 -18
146 0 171 3 286 32 152 37 278 90 416 174 97 59 116 79 93 93 -19 12 -10 24
25 31 19 3 37 10 40 14 3 5 -16 42 -42 84 l-48 76 -162 0 c-90 0 -163 -3 -163
-7 1 -5 22 -23 47 -42 45 -33 46 -35 25 -44 -31 -14 -28 -21 15 -36 l37 -14
-22 -18 c-31 -25 -220 -97 -306 -117 -111 -26 -414 -22 -521 6 -81 22 -325
135 -325 151 0 5 11 12 25 15 27 7 34 26 10 26 -27 0 -16 18 31 52 l46 33 -68
6 c-38 3 -112 9 -164 13 l-96 7 -52 -73z m150 26 c40 -15 75 -28 78 -31 3 -3
-4 -11 -14 -19 -17 -12 -25 -11 -64 12 -24 14 -45 24 -46 22 -51 -75 -86 -102
-101 -77 -6 9 58 119 70 119 2 0 37 -12 77 -26z m1506 -56 c37 -66 37 -72 8
-79 -20 -6 -29 0 -55 37 l-30 44 -35 -21 c-33 -19 -36 -19 -61 -3 -14 9 -24
19 -21 21 3 3 40 16 83 28 43 13 79 24 80 24 0 1 14 -23 31 -51z m-1434 -46
c226 -145 393 -195 651 -195 231 -1 425 53 619 172 36 23 72 41 79 41 16 0 91
-121 80 -129 -163 -115 -383 -210 -571 -247 -96 -18 -317 -18 -423 1 -109 19
-233 61 -361 123 -126 61 -282 168 -271 185 5 7 26 36 47 64 45 59 33 60 150
-15z"/>
<path d="M237 419 c-10 -18 -15 -34 -12 -38 4 -3 11 2 17 12 8 14 13 16 24 6
10 -8 14 -8 14 0 0 6 -4 11 -10 11 -5 0 -10 5 -10 11 0 7 9 9 21 6 16 -4 18
-3 8 9 -18 22 -32 17 -52 -17z"/>
<path d="M1668 409 c-21 -12 -24 -31 -5 -23 8 3 19 -7 27 -23 7 -17 14 -23 17
-15 3 7 -1 19 -7 27 -7 8 -10 22 -6 30 6 17 -2 19 -26 4z"/>
<path d="M307 392 c-32 -35 -9 -80 32 -67 30 9 39 54 16 72 -24 17 -29 17 -48
-5z m43 -27 c0 -18 -5 -25 -19 -25 -26 0 -36 17 -21 35 19 23 40 18 40 -10z"/>
<path d="M1626 366 c8 -20 -14 -30 -31 -16 -19 16 -19 6 2 -33 11 -22 18 -27
20 -17 13 45 14 46 29 26 21 -29 26 -14 8 22 -15 31 -39 46 -28 18z"/>
<path d="M377 335 c-22 -46 -21 -52 1 -32 21 19 32 13 32 -17 1 -19 2 -19 15
4 20 35 18 57 -4 70 -27 14 -25 14 -44 -25z m51 -3 c2 -7 -3 -12 -12 -12 -9 0
-16 7 -16 16 0 17 22 14 28 -4z"/>
<path d="M1522 328 c-17 -17 -15 -53 3 -68 13 -11 20 -11 40 0 27 15 29 18 16
39 -5 7 -14 10 -21 6 -9 -6 -9 -10 1 -16 12 -8 12 -11 -1 -18 -18 -12 -40 4
-40 30 0 12 7 19 20 19 11 0 20 5 20 10 0 14 -23 13 -38 -2z"/>
<path d="M488 307 c7 -8 7 -18 2 -27 -6 -8 -10 -22 -9 -30 0 -8 8 -1 17 17 12
23 21 30 31 24 11 -7 11 -15 3 -40 -6 -17 -7 -33 -3 -36 5 -2 11 4 14 15 3 14
10 18 21 14 11 -4 14 -13 11 -25 -4 -11 -2 -19 4 -19 11 0 27 68 17 77 -3 4
-6 -1 -6 -11 0 -11 -6 -16 -17 -14 -10 2 -17 11 -15 20 1 9 -11 22 -32 32 -41
19 -52 20 -38 3z"/>
<path d="M1470 304 c0 -20 22 -74 31 -74 5 0 9 3 9 8 -1 13 -39 77 -40 66z"/>
<path d="M1413 245 c11 -36 29 -44 57 -24 12 9 10 10 -8 6 -19 -5 -25 0 -34
24 -14 41 -28 36 -15 -6z"/>
<path d="M620 234 c-13 -32 -13 -54 -1 -54 5 0 16 -3 25 -6 9 -3 16 -2 16 4 0
5 -10 13 -22 17 -22 7 -21 8 7 14 29 7 29 7 7 15 -28 9 -20 26 11 19 18 -4 19
-3 7 6 -24 17 -40 13 -50 -15z"/>
<path d="M1322 252 c-8 -6 -10 -19 -6 -40 8 -37 24 -53 24 -23 0 11 8 25 18
30 15 9 15 10 -5 11 -27 0 -31 17 -5 23 12 3 13 5 2 6 -8 0 -21 -3 -28 -7z"/>
<path d="M733 233 c-19 -7 -15 -31 7 -45 11 -7 20 -16 20 -20 0 -13 -28 -9
-33 5 -2 6 -8 9 -12 5 -12 -12 5 -28 30 -28 35 0 42 20 15 42 -12 10 -20 21
-17 25 4 3 13 0 22 -7 10 -8 15 -9 15 -2 0 14 -31 31 -47 25z"/>
<path d="M1237 233 c-13 -12 -7 -61 9 -74 33 -27 72 33 44 67 -13 15 -42 19
-53 7z m43 -18 c15 -18 6 -45 -15 -45 -18 0 -30 24 -21 45 7 19 20 19 36 0z"/>
<path d="M795 184 c-7 -38 0 -58 11 -31 3 9 11 14 18 11 7 -3 19 2 26 11 10
12 10 18 0 30 -23 27 -47 18 -55 -21z m45 5 c0 -5 -7 -9 -15 -9 -15 0 -20 12
-9 23 8 8 24 -1 24 -14z"/>
<path d="M1125 214 c-15 -6 -6 -84 10 -84 30 0 45 13 45 39 0 40 -23 59 -55
45z m43 -38 c4 -19 -16 -39 -30 -30 -4 3 -8 16 -8 30 0 19 5 25 17 22 10 -2
19 -12 21 -22z"/>
<path d="M870 168 c1 -34 3 -39 11 -25 14 24 39 21 40 -5 1 -13 5 -5 9 17 10
49 6 55 -31 55 -28 0 -29 -2 -29 -42z m48 14 c2 -7 -3 -12 -12 -12 -9 0 -16 7
-16 16 0 17 22 14 28 -4z"/>
<path d="M962 168 c3 -35 7 -42 26 -43 12 -1 22 2 22 7 0 4 -9 8 -20 8 -28 0
-25 20 3 21 21 0 21 1 -3 11 -25 11 -25 11 -2 15 30 6 28 23 -4 23 -23 0 -25
-3 -22 -42z"/>
<path d="M1043 172 l-10 -38 34 0 c18 0 33 1 33 3 0 14 -31 73 -38 73 -5 0
-14 -17 -19 -38z"/>
</g>
</svg>
